<svg width="24" height="25" viewBox="0 0 24 25" fill="none" xmlns="http://www.w3.org/2000/svg">
<path d="M8.9101 21.1666C8.7201 21.1666 8.5301 21.0966 8.3801 20.9466C8.0901 20.6566 8.0901 20.1766 8.3801 19.8866L14.9001 13.3666C15.3801 12.8866 15.3801 12.1066 14.9001 11.6266L8.3801 5.1066C8.0901 4.8166 8.0901 4.3366 8.3801 4.0466C8.6701 3.7566 9.1501 3.7566 9.4401 4.0466L15.9601 10.5666C16.4701 11.0766 16.7601 11.7666 16.7601 12.4966C16.7601 13.2266 16.4801 13.9166 15.9601 14.4266L9.4401 20.9466C9.2901 21.0866 9.1001 21.1666 8.9101 21.1666Z" fill="#111111"/>
</svg>
