<svg width="8" height="8" viewBox="0 0 8 8" fill="none" xmlns="http://www.w3.org/2000/svg">
<path d="M5.06035 3.99986L7.36035 1.69986C7.65035 1.40986 7.65035 0.929863 7.36035 0.639863C7.07035 0.349863 6.59035 0.349863 6.30035 0.639863L4.00035 2.93986L1.70035 0.639863C1.41035 0.349863 0.930352 0.349863 0.640352 0.639863C0.350352 0.929863 0.350352 1.40986 0.640352 1.69986L2.94035 3.99986L0.640352 6.29986C0.350352 6.58986 0.350352 7.06986 0.640352 7.35986C0.790352 7.50986 0.980351 7.57986 1.17035 7.57986C1.36035 7.57986 1.55035 7.50986 1.70035 7.35986L4.00035 5.05986L6.30035 7.35986C6.45035 7.50986 6.64035 7.57986 6.83035 7.57986C7.02035 7.57986 7.21035 7.50986 7.36035 7.35986C7.65035 7.06986 7.65035 6.58986 7.36035 6.29986L5.06035 3.99986Z" fill="#DDDDDD"/>
</svg>
