<svg width="24" height="24" viewBox="0 0 24 24" fill="none" xmlns="http://www.w3.org/2000/svg">
<path d="M15.2395 22.2705H15.1095C10.6695 22.2705 8.52953 20.5205 8.15953 16.6005C8.11953 16.1905 8.41953 15.8205 8.83953 15.7805C9.24953 15.7405 9.61953 16.0505 9.65953 16.4605C9.94953 19.6005 11.4295 20.7705 15.1195 20.7705H15.2495C19.3195 20.7705 20.7595 19.3305 20.7595 15.2605V8.74047C20.7595 4.67047 19.3195 3.23047 15.2495 3.23047H15.1195C11.4095 3.23047 9.92953 4.42047 9.65953 7.62047C9.60953 8.03047 9.26953 8.34047 8.83953 8.30047C8.41953 8.27047 8.11953 7.90047 8.14953 7.49047C8.48953 3.51047 10.6395 1.73047 15.1095 1.73047H15.2395C20.1495 1.73047 22.2495 3.83047 22.2495 8.74047V15.2605C22.2495 20.1705 20.1495 22.2705 15.2395 22.2705Z" fill="#254CA9"/>
<path d="M14.88 12.75H2C1.59 12.75 1.25 12.41 1.25 12C1.25 11.59 1.59 11.25 2 11.25H14.88C15.29 11.25 15.63 11.59 15.63 12C15.63 12.41 15.3 12.75 14.88 12.75Z" fill="#254CA9"/>
<path d="M12.6498 16.0998C12.4598 16.0998 12.2698 16.0298 12.1198 15.8798C11.8298 15.5898 11.8298 15.1098 12.1198 14.8198L14.9398 11.9998L12.1198 9.17984C11.8298 8.88984 11.8298 8.40984 12.1198 8.11984C12.4098 7.82984 12.8898 7.82984 13.1798 8.11984L16.5298 11.4698C16.8198 11.7598 16.8198 12.2398 16.5298 12.5298L13.1798 15.8798C13.0298 16.0298 12.8398 16.0998 12.6498 16.0998Z" fill="#254CA9"/>
</svg>
