<svg width="24" height="24" viewBox="0 0 24 24" fill="none" xmlns="http://www.w3.org/2000/svg">
<path d="M11.9998 12.5V12.29C11.9998 11.61 12.4198 11.25 12.8398 10.96C13.2498 10.68 13.6598 10.32 13.6598 9.66003C13.6598 8.74003 12.9198 8 11.9998 8C11.0798 8 10.3398 8.74003 10.3398 9.66003" stroke="#666666" stroke-width="1.5" stroke-linecap="round" stroke-linejoin="round"/>
<path d="M11.9956 15.5H12.0046" stroke="#666666" stroke-width="1.5" stroke-linecap="round" stroke-linejoin="round"/>
<path d="M12 23.2341C6.07 23.2341 1.25 18.3115 1.25 12.2553C1.25 6.19916 6.07 1.27661 12 1.27661C17.93 1.27661 22.75 6.19916 22.75 12.2553C22.75 18.3115 17.93 23.2341 12 23.2341ZM12 2.80853C6.9 2.80853 2.75 7.04682 2.75 12.2553C2.75 17.4638 6.9 21.7021 12 21.7021C17.1 21.7021 21.25 17.4638 21.25 12.2553C21.25 7.04682 17.1 2.80853 12 2.80853Z" fill="#666666"/>
</svg>
